<?xml version="1.0" standalone="no"?>
<!DOCTYPE svg PUBLIC "-//W3C//DTD SVG 20010904//EN"
 "http://www.w3.org/TR/2001/REC-SVG-20010904/DTD/svg10.dtd">
<svg version="1.0" xmlns="http://www.w3.org/2000/svg"
 width="512.000000pt" height="512.000000pt" viewBox="0 0 512.000000 512.000000"
 preserveAspectRatio="xMidYMid meet">
<metadata>
Created by potrace 1.11, written by Peter Selinger 2001-2013
</metadata>
<g transform="translate(0.000000,512.000000) scale(0.100000,-0.100000)"
fill="#000000" stroke="none">
<path d="M2497 4864 c-1 -1 -52 -4 -113 -8 -62 -3 -118 -8 -125 -10 -8 -3 -36
-8 -64 -11 -86 -10 -101 -12 -209 -40 -58 -14 -136 -37 -173 -51 -38 -14 -77
-28 -88 -31 -45 -13 -250 -125 -325 -178 -257 -181 -456 -440 -534 -695 -49
-162 -61 -261 -60 -485 0 -147 5 -205 24 -315 5 -30 11 -66 14 -80 12 -74 64
-250 77 -264 5 -6 9 -16 9 -23 0 -28 73 -161 131 -237 137 -181 192 -365 193
-643 0 -57 4 -103 8 -103 13 0 132 122 179 185 57 75 135 204 165 271 48 110
57 153 59 314 3 191 9 248 36 327 36 108 114 190 212 221 66 20 179 23 238 6
132 -40 244 -158 268 -284 10 -56 7 -381 -4 -455 -36 -229 -102 -391 -184
-457 -123 -97 -193 -378 -195 -783 l-1 -129 295 -208 c237 -166 300 -206 320
-202 14 2 36 7 50 9 34 7 188 7 225 0 56 -11 177 -56 370 -140 60 -26 116 -45
202 -69 245 -68 384 -47 465 69 24 35 73 144 84 185 57 226 52 433 -17 642
-12 34 -23 95 -25 135 -3 63 0 79 24 125 39 74 62 76 93 7 l24 -51 28 33 c54
66 70 114 71 214 1 77 -3 100 -22 141 -42 88 -164 166 -260 166 -76 0 -258
-106 -387 -226 l-30 -28 -70 75 c-191 202 -329 349 -389 413 -36 38 -109 115
-161 170 l-95 99 5 80 c3 44 7 103 10 130 5 51 10 119 20 260 7 93 15 169 18
169 18 5 138 70 190 104 79 51 189 157 236 225 66 97 121 253 121 343 l0 36
63 -6 c116 -12 222 -47 365 -122 56 -29 102 -50 102 -47 0 4 4 3 10 -3 8 -8
42 -128 65 -229 2 -11 27 -110 55 -220 27 -110 53 -221 56 -246 6 -44 4 -48
-27 -72 -19 -14 -60 -34 -91 -44 l-57 -18 93 -155 c252 -420 274 -503 161
-614 -28 -28 -62 -59 -76 -68 -14 -11 -6 -8 20 5 134 68 175 177 124 322 -29
80 -121 259 -200 388 -29 49 -51 92 -48 97 3 5 19 11 36 15 16 4 48 24 70 44
31 30 39 45 39 72 0 62 -83 362 -176 638 -20 57 -32 107 -27 110 19 14 73 90
106 151 90 165 80 293 -33 464 -150 224 -426 402 -775 500 -49 14 -108 28
-130 32 -22 3 -42 7 -45 9 -3 2 -26 6 -50 9 -55 8 -120 17 -141 21 -45 9 -414
25 -422 19z"/>
</g>
</svg>
